<svg xmlns="http://www.w3.org/2000/svg" width="28" height="28" viewBox="0 0 28 28" fill="none">
  <path d="M13.27030303030303 28.0Q10.656969696969696 28.0 8.824242424242424 26.15030303030303Q6.991515151515151 24.30060606060606 6.991515151515151 21.721212121212123V19.786666666666665Q6.991515151515151 17.173333333333332 8.824242424242424 15.34060606060606Q10.656969696969696 13.507878787878788 13.27030303030303 13.507878787878788Q15.883636363636363 13.507878787878788 17.71636363636364 15.34060606060606Q19.54909090909091 17.173333333333332 19.54909090909091 19.786666666666665V21.721212121212123Q19.54909090909091 24.30060606060606 17.71636363636364 26.15030303030303Q15.883636363636363 28.0 13.27030303030303 28.0ZM20.49939393939394 4.344242424242423H17.614545454545453Q17.003636363636364 4.344242424242423 16.57939393939394 4.768484848484848Q16.155151515151516 5.1927272727272715 16.155151515151516 5.769696969696969Q16.155151515151516 6.380606060606059 16.57939393939394 6.804848484848484Q17.003636363636364 7.229090909090909 17.614545454545453 7.229090909090909H20.49939393939394V10.113939393939393Q20.49939393939394 10.724848484848485 20.923636363636362 11.149090909090908Q21.347878787878788 11.573333333333332 21.95878787878788 11.573333333333332Q22.56969696969697 11.573333333333332 22.993939393939392 11.149090909090908Q23.418181818181818 10.724848484848485 23.418181818181818 10.113939393939393V7.229090909090909H26.303030303030305Q26.913939393939394 7.229090909090909 27.338181818181816 6.804848484848484Q27.762424242424242 6.380606060606059 27.762424242424242 5.769696969696969Q27.762424242424242 5.1927272727272715 27.338181818181816 4.768484848484848Q26.913939393939394 4.344242424242423 26.303030303030305 4.344242424242423H23.418181818181818V1.4254545454545435Q23.418181818181818 0.8484848484848468 22.993939393939392 0.42424242424242253Q22.56969696969697 -1.7763568394002505e-15 21.95878787878788 -1.7763568394002505e-15Q21.347878787878788 -1.7763568394002505e-15 20.923636363636362 0.42424242424242253Q20.49939393939394 0.8484848484848468 20.49939393939394 1.4254545454545435ZM12.59151515151515 4.276363636363635Q12.863030303030303 3.46181818181818 13.626666666666667 2.6133333333333315Q14.39030303030303 1.7648484848484833 15.815757575757576 0.3393939393939376L16.155151515151516 -1.7763568394002505e-15H2.172121212121211Q1.3575757575757565 -1.7763568394002505e-15 0.7975757575757565 0.5599999999999983Q0.23757575757575644 1.1199999999999983 0.23757575757575644 1.9345454545454528V2.4096969696969683Q0.23757575757575644 4.106666666666666 0.882424242424241 5.599999999999999Q1.5272727272727264 7.093333333333332 2.6472727272727266 8.213333333333331Q3.7672727272727267 9.333333333333332 5.260606060606061 9.978181818181817Q6.753939393939393 10.623030303030303 8.45090909090909 10.623030303030303H15.170909090909092Q14.05090909090909 9.469090909090909 13.44 8.739393939393938Q12.829090909090908 8.009696969696968 12.59151515151515 7.263030303030302Q12.353939393939392 6.550303030303029 12.353939393939392 5.786666666666665Q12.353939393939392 5.023030303030302 12.59151515151515 4.276363636363635Z" fill="currentColor"/>
</svg>